<?xml version="1.0" standalone="no"?>
<!DOCTYPE svg PUBLIC "-//W3C//DTD SVG 20010904//EN" "http://www.w3.org/TR/2001/REC-SVG-20010904/DTD/svg10.dtd">
<svg version="1.0" xmlns="http://www.w3.org/2000/svg"
    width="50.000000pt" height="50.000000pt" viewBox="0 0 50.000000 50.000000"
    preserveAspectRatio="xMidYMid meet">

    <g transform="translate(0.000000,50.000000) scale(0.100000,-0.100000)"
        fill="white" stroke="none">
        <path
            d="M162 406 c-60 -57 -72 -65 -112 -68 l-45 -3 0 -85 0 -85 45 -3 c40
-3 52 -11 111 -68 37 -35 74 -64 83 -64 24 0 27 29 24 240 -4 235 -4 235 -106
136z m88 -156 c0 -110 -3 -200 -7 -200 -4 0 -38 30 -75 67 l-68 67 0 65 0 65
67 68 c37 38 71 68 75 68 5 0 8 -90 8 -200z m-170 0 l0 -70 -30 0 -30 0 0 70
0 70 30 0 30 0 0 -70z" />
        <path
            d="M380 422 c0 -5 14 -19 31 -31 37 -27 69 -93 69 -141 0 -49 -31 -112
-71 -143 -18 -14 -30 -29 -26 -33 12 -13 75 45 96 89 40 82 16 189 -53 242
-34 26 -46 30 -46 17z" />
        <path
            d="M340 374 c0 -3 13 -19 29 -35 53 -52 52 -126 -1 -179 -36 -37 -29
-54 8 -19 51 47 68 113 43 162 -22 42 -79 94 -79 71z" />
        <path
            d="M300 312 c0 -5 9 -17 20 -27 11 -10 20 -26 20 -35 0 -9 -9 -25 -20
-35 -26 -24 -26 -39 0 -25 31 17 46 55 32 84 -11 25 -52 54 -52 38z" />
    </g>
</svg>