<?xml version="1.0" standalone="no"?>
<!DOCTYPE svg PUBLIC "-//W3C//DTD SVG 20010904//EN" "http://www.w3.org/TR/2001/REC-SVG-20010904/DTD/svg10.dtd">
<svg version="1.0" xmlns="http://www.w3.org/2000/svg"
    width="50.000000pt" height="50.000000pt" viewBox="0 0 50.000000 50.000000"
    preserveAspectRatio="xMidYMid meet">

    <g transform="translate(0.000000,50.000000) scale(0.100000,-0.100000)"
        fill="white" stroke="none">
        <path
            d="M0 492 c0 -14 489 -496 496 -489 4 4 -12 28 -36 52 -24 25 -39 45
-33 45 7 0 25 21 40 47 50 86 29 209 -46 262 -50 36 -55 23 -8 -23 73 -71 85
-157 31 -238 -27 -42 -35 -45 -54 -23 -10 12 -8 20 9 41 44 56 36 136 -19 189
-41 39 -50 24 -12 -19 17 -19 33 -44 37 -56 10 -32 -3 -85 -26 -105 -18 -17
-21 -17 -36 -3 -14 15 -14 18 1 39 23 33 20 56 -10 86 -32 32 -45 21 -14 -12
20 -21 22 -28 12 -50 -14 -30 -23 -31 -45 -7 -12 13 -17 43 -19 121 -2 86 -6
106 -20 115 -15 9 -26 2 -66 -37 l-48 -47 -59 60 c-56 57 -75 70 -75 52z m250
-134 l0 -92 -50 49 -50 49 42 43 c23 24 46 43 50 43 4 0 8 -41 8 -92z" />
        <path
            d="M55 341 l-50 -6 0 -85 0 -85 45 -3 c40 -3 52 -10 113 -70 56 -56 70
-65 85 -56 13 9 18 28 20 84 2 42 -2 78 -8 84 -7 7 -10 -15 -10 -72 0 -45 -3
-82 -8 -82 -4 0 -38 30 -75 68 l-67 68 0 66 c0 37 5 70 10 73 12 7 14 26 3 23
-5 0 -30 -4 -58 -7z m25 -91 l0 -70 -30 0 -30 0 0 70 0 70 30 0 30 0 0 -70z" />
    </g>
</svg>