<?xml version="1.0" standalone="no"?>
<!DOCTYPE svg PUBLIC "-//W3C//DTD SVG 20010904//EN" "http://www.w3.org/TR/2001/REC-SVG-20010904/DTD/svg10.dtd">
<svg version="1.0" xmlns="http://www.w3.org/2000/svg"
    width="24.000000pt" height="24.000000pt" viewBox="0 0 24.000000 24.000000"
    preserveAspectRatio="xMidYMid meet">

    <g transform="translate(0.000000,24.000000) scale(0.100000,-0.100000)"
        fill="white" stroke="none">
        <path
            d="M65 135 c-25 -41 -43 -79 -40 -85 8 -13 182 -13 190 0 7 11 -82 160
-95 160 -4 0 -29 -34 -55 -75z m93 -9 c17 -30 32 -57 32 -60 0 -3 -31 -6 -70
-6 -38 0 -70 3 -70 6 0 9 64 113 70 113 3 0 20 -24 38 -53z" />
    </g>
</svg>