<?xml version="1.0" standalone="no"?>
<!DOCTYPE svg PUBLIC "-//W3C//DTD SVG 20010904//EN" "http://www.w3.org/TR/2001/REC-SVG-20010904/DTD/svg10.dtd">
<svg version="1.0" xmlns="http://www.w3.org/2000/svg"
    width="50.000000pt" height="50.000000pt" viewBox="0 0 50.000000 50.000000"
    preserveAspectRatio="xMidYMid meet">

    <g transform="translate(0.000000,50.000000) scale(0.100000,-0.100000)"
        fill="white" stroke="none">
        <path
            d="M210 405 l-33 -85 -83 0 c-45 0 -85 -4 -89 -9 -3 -6 24 -34 60 -62
36 -29 65 -60 65 -68 0 -15 -19 -90 -34 -138 -11 -33 9 -29 82 17 34 22 67 40
73 40 5 0 38 -18 73 -40 73 -46 91 -50 80 -17 -15 48 -34 123 -34 137 0 8 30
39 65 68 36 29 63 58 60 63 -4 5 -44 9 -89 9 l-83 0 -33 85 c-18 47 -36 85
-40 85 -4 0 -22 -38 -40 -85z m69 -27 c13 -35 29 -66 35 -70 6 -4 43 -8 81 -8
67 -1 69 -1 49 -18 -11 -9 -39 -33 -62 -52 l-41 -35 19 -69 c11 -38 19 -71 17
-72 -2 -2 -30 15 -64 37 l-61 41 -63 -41 c-35 -22 -65 -39 -66 -37 -1 1 6 34
16 74 l19 72 -60 48 -61 47 59 3 c96 4 97 5 124 77 13 36 27 65 30 65 3 0 16
-28 29 -62z" />
    </g>
</svg>