<?xml version="1.0" standalone="no"?>
<!DOCTYPE svg PUBLIC "-//W3C//DTD SVG 20010904//EN" "http://www.w3.org/TR/2001/REC-SVG-20010904/DTD/svg10.dtd">
<svg version="1.0" xmlns="http://www.w3.org/2000/svg"
    width="50.000000pt" height="50.000000pt" viewBox="0 0 50.000000 50.000000"
    preserveAspectRatio="xMidYMid meet">

    <g transform="translate(0.000000,50.000000) scale(0.100000,-0.100000)"
        fill="white" stroke="none">
        <path
            d="M210 405 l-33 -85 -83 0 c-45 0 -85 -4 -88 -9 -3 -5 23 -33 59 -62
36 -29 65 -60 65 -68 0 -9 -9 -48 -20 -86 -11 -38 -20 -71 -20 -72 0 -12 35 4
85 37 33 22 67 40 75 40 8 0 42 -18 75 -40 50 -33 85 -49 85 -37 0 1 -9 34
-20 72 -11 38 -20 77 -20 86 0 8 29 39 65 68 36 28 63 56 60 62 -4 5 -44 9
-90 9 l-83 0 -33 85 c-17 47 -35 85 -39 85 -4 0 -22 -38 -40 -85z" />
    </g>
</svg>