<?xml version="1.0" standalone="no"?>
<!DOCTYPE svg PUBLIC "-//W3C//DTD SVG 20010904//EN" "http://www.w3.org/TR/2001/REC-SVG-20010904/DTD/svg10.dtd">
<svg version="1.0" xmlns="http://www.w3.org/2000/svg"
    width="30.000000pt" height="30.000000pt" viewBox="0 0 30.000000 30.000000"
    preserveAspectRatio="xMidYMid meet">

    <g transform="translate(0.000000,30.000000) scale(0.100000,-0.100000)"
        fill="white" stroke="none">
        <path
            d="M105 260 c-44 -18 -70 -59 -70 -111 0 -42 5 -53 33 -81 28 -28 39
-33 82 -33 42 0 54 5 80 30 31 31 52 95 31 95 -6 0 -11 -7 -11 -15 0 -46 -51
-95 -99 -95 -52 0 -101 48 -101 99 0 71 80 123 141 90 16 -8 18 -13 8 -25 -9
-12 -6 -14 20 -14 28 0 31 3 31 32 0 23 -3 29 -11 21 -8 -8 -18 -7 -37 3 -30
15 -67 17 -97 4z" />
    </g>
</svg>